<svg xmlns="http://www.w3.org/2000/svg" width="24.488" height="25.925" viewBox="0 0 24.488 25.925">
    <path d="M154.272 41.432v-.012a12.5 12.5 0 0 0-5.763-8.1l-1.044-.629.715-.988a7.55 7.55 0 1 0-13.625-4.477 7.3 7.3 0 0 0 1.467 4.458l.754.993-1.068.644a12.5 12.5 0 0 0-5.763 8.1 3.4 3.4 0 0 0 .718 2.9 3.475 3.475 0 0 0 2.672 1.284h17.6a3.312 3.312 0 0 0 2.653-1.259 3.519 3.519 0 0 0 .69-2.91m-12.173-18.467a4.311 4.311 0 1 1-4.311 4.311 4.316 4.316 0 0 1 4.311-4.311m-9.189 19.341.561-1.51a9.15 9.15 0 0 1 8.529-5.966h.149a9.15 9.15 0 0 1 8.529 5.966l.561 1.51z" transform="translate(-129.862 -19.676)" style="fill:#b8d8e8"/>
</svg>
