<svg xmlns="http://www.w3.org/2000/svg" width="26" height="24.173" viewBox="0 0 26 24.173">
    <defs>
        <clipPath id="qgrmw4hpya">
            <path data-name="Rectangle 331" style="fill:#b8d8e8" d="M0 0h26v24.173H0z"/>
        </clipPath>
    </defs>
    <g data-name="Group 324" style="clip-path:url(#qgrmw4hpya)">
        <path data-name="Path 230" d="M201.438 177.026c-.054 0-.18-.007-.669-.005v-.059a1.135 1.135 0 0 0-1.128-1.168h-.017a1.156 1.156 0 0 0-1.154 1.142c-.012.43-.012.852 0 1.256a1.145 1.145 0 0 0 1.16 1.132h1.736a1.149 1.149 0 0 0 .073-2.3" transform="translate(-180.316 -159.721)" style="fill:#b8d8e8"/>
        <path data-name="Path 231" d="M156.007 129.855h-.035a6.15 6.15 0 0 0-.014 12.3h.049a6.163 6.163 0 0 0 6.135-6.11 6.067 6.067 0 0 0-1.763-4.343 6.144 6.144 0 0 0-4.372-1.848m-.015 9.35h-.008a3.2 3.2 0 0 1 0-6.4H156a3.2 3.2 0 0 1-.007 6.4" transform="translate(-136.143 -117.983)" style="fill:#b8d8e8"/>
        <path data-name="Path 232" d="M54.785 113.46h-.007a1.449 1.449 0 0 0-1.465 1.449 1.467 1.467 0 0 0 1.431 1.5h.035a1.472 1.472 0 1 0 .005-2.945" transform="translate(-48.439 -103.087)" style="fill:#b8d8e8"/>
        <path data-name="Path 233" d="M98.755 116.4a1.483 1.483 0 0 0 1.468-1.469 1.468 1.468 0 0 0-1.454-1.475h-.016a1.459 1.459 0 0 0-1.475 1.432 1.492 1.492 0 0 0 1.472 1.513" transform="translate(-88.388 -103.087)" style="fill:#b8d8e8"/>
        <path data-name="Path 234" d="M54.775 164.416a1.454 1.454 0 0 0-1.458 1.469 1.456 1.456 0 0 0 1.449 1.477h.015a1.491 1.491 0 0 0 1.051-.444 1.468 1.468 0 0 0 .43-1.052 1.485 1.485 0 0 0-1.481-1.45z" transform="translate(-48.442 -149.384)" style="fill:#b8d8e8"/>
        <path data-name="Path 235" d="M98.758 167.361h.02a1.471 1.471 0 0 0 1.01-2.525 1.453 1.453 0 0 0-1.045-.42 1.471 1.471 0 0 0-1.01 2.525 1.46 1.46 0 0 0 1.026.42" transform="translate(-88.392 -149.384)" style="fill:#b8d8e8"/>
        <path data-name="Path 236" d="M54.78 62.528h-.006a1.453 1.453 0 0 0-1.458 1.466 1.534 1.534 0 0 0 .028.293 1.449 1.449 0 0 0 1.422 1.181h.014a1.49 1.49 0 0 0 1.451-1.181 1.4 1.4 0 0 0 .031-.311 1.484 1.484 0 0 0-1.481-1.447" transform="translate(-48.442 -56.811)" style="fill:#b8d8e8"/>
        <path data-name="Path 237" d="M142.77 62.525a1.487 1.487 0 0 0-1.07.433 1.44 1.44 0 0 0-.408 1.326 1.484 1.484 0 0 0 1.445 1.181h.006a1.448 1.448 0 0 0 1.436-1.181 1.516 1.516 0 0 0 .028-.273 1.455 1.455 0 0 0-1.437-1.485" transform="translate(-128.347 -56.808)" style="fill:#b8d8e8"/>
        <path data-name="Path 238" d="M98.793 62.526a1.47 1.47 0 0 0-1.482 1.759 1.477 1.477 0 0 0 1.43 1.181h.013a1.479 1.479 0 0 0 1.443-1.181 1.456 1.456 0 0 0 .03-.261 1.472 1.472 0 0 0-1.435-1.5" transform="translate(-88.389 -56.809)" style="fill:#b8d8e8"/>
        <path data-name="Path 239" d="M186.916 62.524a1.474 1.474 0 0 0-1.467 1.461 1.509 1.509 0 0 0 .028.3 1.465 1.465 0 0 0 1.442 1.181h.026a1.47 1.47 0 0 0-.027-2.94" transform="translate(-168.491 -56.808)" style="fill:#b8d8e8"/>
        <path data-name="Path 240" d="M12.122 20.273a2.028 2.028 0 0 0-.931-.235c-1.669-.009-3.366-.008-5.007-.008H4.49a1.35 1.35 0 0 1-1.538-1.53V4.395a1.25 1.25 0 0 1 .906-1.336 5.147 5.147 0 0 1 .789-.082V2.97h15.605v.006h.068a1.35 1.35 0 0 1 1.537 1.534v5.003a1.54 1.54 0 0 0 .445 1.105 1.45 1.45 0 0 0 1.028.412h.019a1.465 1.465 0 0 0 1.454-1.51c0-1.586.008-3.462 0-5.345a3.919 3.919 0 0 0-.637-2.132A4.189 4.189 0 0 0 20.577.028a12.658 12.658 0 0 0-.675 0V.005h-9.03V.01H7.825V0H4.871v.025h-.49A4.249 4.249 0 0 0 0 4.411v14.2a5.132 5.132 0 0 0 .11 1.062 4.224 4.224 0 0 0 4.19 3.306H11.234a2.145 2.145 0 0 0 .265-.012 1.462 1.462 0 0 0 1.278-1.151 1.419 1.419 0 0 0-.657-1.544" style="fill:#b8d8e8"/>
    </g>
</svg>
