<svg xmlns="http://www.w3.org/2000/svg" width="16.865" height="8.433" viewBox="0 0 16.865 8.433">
    <path d="M55.6 141.935h12.211a1.054 1.054 0 0 0 0-2.108H55.6l1.363-1.363a1.054 1.054 0 1 0-1.49-1.491l-3.162 3.162c-.025.025-.048.05-.07.077l-.015.02a.903.903 0 0 0-.046.062l-.012.02a.976.976 0 0 0-.042.069l-.007.014c-.013.026-.026.052-.037.079v.01a1.113 1.113 0 0 0-.031.087v.011a.826.826 0 0 0-.022.089v.027c0 .025-.009.05-.011.075a.992.992 0 0 0-.005.105 1 1 0 0 0 .005.105c0 .026.007.051.011.076v.026c.006.03.014.06.022.089v.01c.009.03.02.059.031.087v.01c.011.027.024.053.037.079l.007.014a.997.997 0 0 0 .042.07l.011.019c.014.022.031.042.046.063l.015.02c.022.026.045.052.069.077l3.162 3.162a1.054 1.054 0 0 0 1.49-1.491zm0 0" transform="translate(-52 -136.665)" style="fill:#030303"/>
</svg>
