<svg xmlns="http://www.w3.org/2000/svg" width="42" height="42" viewBox="0 0 42 42">
    <defs>
        <clipPath id="af22nj6l9a">
            <path data-name="Rectangle 331" style="fill:#698695" d="M0 0h18.74v17.423H0z"/>
        </clipPath>
    </defs>
    <g transform="translate(-43 -679)">
        <circle data-name="Ellipse 142" cx="21" cy="21" r="21" transform="translate(43 679)" style="fill:#edf0f2"/>
        <g data-name="Group 324" style="clip-path:url(#af22nj6l9a)" transform="translate(55.75 692.077)">
            <path data-name="Path 230" d="M200.606 176.681c-.039 0-.13-.005-.482 0v-.043a.818.818 0 0 0-.813-.842h-.011a.833.833 0 0 0-.832.823c-.008.31-.008.614 0 .905a.825.825 0 0 0 .836.816h1.252a.828.828 0 0 0 .053-1.656" transform="translate(-185.382 -164.209)" style="fill:#698695"/>
            <path data-name="Path 231" d="M154.286 129.855h-.025a4.433 4.433 0 0 0-.01 8.866h.035a4.442 4.442 0 0 0 4.422-4.4 4.373 4.373 0 0 0-1.271-3.13 4.428 4.428 0 0 0-3.151-1.332m-.011 6.739h-.005a2.306 2.306 0 0 1 0-4.612h.01a2.306 2.306 0 0 1 0 4.612" transform="translate(-139.968 -121.298)" style="fill:#698695"/>
            <path data-name="Path 232" d="M54.374 113.46a1.044 1.044 0 0 0-1.056 1.044 1.057 1.057 0 0 0 1.032 1.078h.025a1.061 1.061 0 1 0 0-2.123" transform="translate(-49.8 -105.983)" style="fill:#698695"/>
            <path data-name="Path 233" d="M98.343 115.583a1.069 1.069 0 0 0 1.058-1.059 1.058 1.058 0 0 0-1.048-1.063h-.012a1.052 1.052 0 0 0-1.063 1.032 1.075 1.075 0 0 0 1.061 1.09" transform="translate(-90.871 -105.983)" style="fill:#698695"/>
            <path data-name="Path 234" d="M54.368 164.416a1.048 1.048 0 0 0-1.051 1.059 1.05 1.05 0 0 0 1.044 1.065h.011a1.075 1.075 0 0 0 .757-.32 1.058 1.058 0 0 0 .31-.758 1.071 1.071 0 0 0-1.067-1.045z" transform="translate(-49.804 -153.582)" style="fill:#698695"/>
            <path data-name="Path 235" d="M98.347 166.539h.014a1.06 1.06 0 0 0 .728-1.82 1.047 1.047 0 0 0-.754-.3 1.06 1.06 0 0 0-.728 1.82 1.052 1.052 0 0 0 .739.3" transform="translate(-90.876 -153.581)" style="fill:#698695"/>
            <path data-name="Path 236" d="M54.371 62.528a1.047 1.047 0 0 0-1.051 1.057 1.106 1.106 0 0 0 .02.211 1.045 1.045 0 0 0 1.025.851h.01a1.074 1.074 0 0 0 1.046-.851 1.007 1.007 0 0 0 .022-.224 1.07 1.07 0 0 0-1.067-1.043" transform="translate(-49.803 -58.408)" style="fill:#698695"/>
            <path data-name="Path 237" d="M142.349 62.525a1.072 1.072 0 0 0-.771.312 1.038 1.038 0 0 0-.294.956 1.069 1.069 0 0 0 1.041.851 1.043 1.043 0 0 0 1.035-.851 1.09 1.09 0 0 0 .02-.2 1.049 1.049 0 0 0-1.036-1.071" transform="translate(-131.953 -58.405)" style="fill:#698695"/>
            <path data-name="Path 238" d="M98.372 62.526a1.059 1.059 0 0 0-1.072 1.267 1.064 1.064 0 0 0 1.031.851h.01a1.066 1.066 0 0 0 1.04-.851 1.05 1.05 0 0 0 .022-.188 1.061 1.061 0 0 0-1.034-1.079" transform="translate(-90.872 -58.405)" style="fill:#698695"/>
            <path data-name="Path 239" d="M186.505 62.524a1.063 1.063 0 0 0-1.057 1.053 1.086 1.086 0 0 0 .02.215 1.056 1.056 0 0 0 1.04.851h.019a1.06 1.06 0 0 0-.019-2.119" transform="translate(-173.226 -58.404)" style="fill:#698695"/>
            <path data-name="Path 240" d="M8.737 14.612a1.462 1.462 0 0 0-.671-.17c-1.2-.006-2.426-.006-3.609-.006H3.236a.973.973 0 0 1-1.109-1.1V3.173a.9.9 0 0 1 .654-.973 3.709 3.709 0 0 1 .569-.059h11.299a.973.973 0 0 1 1.108 1.105v3.605a1.11 1.11 0 0 0 .321.8 1.045 1.045 0 0 0 .741.3h.014a1.056 1.056 0 0 0 1.046-1.091c0-1.143.006-2.5 0-3.852a2.824 2.824 0 0 0-.459-1.536A3.019 3.019 0 0 0 14.831.02h-.487V.003H5.64V0H3.511v.018h-.354A3.063 3.063 0 0 0 0 3.179v10.234a3.7 3.7 0 0 0 .079.765A3.045 3.045 0 0 0 3.1 16.562h5a1.546 1.546 0 0 0 .191-.009 1.054 1.054 0 0 0 .921-.83 1.023 1.023 0 0 0-.473-1.113" style="fill:#698695"/>
        </g>
    </g>
</svg>
