<svg xmlns="http://www.w3.org/2000/svg" width="72" height="72" viewBox="0 0 72 72">
    <defs>
        <clipPath id="48e8ioes0a">
            <path data-name="Rectangle 536" style="fill:#10a7f5" d="M0 0h31.552v27.327H0z"/>
        </clipPath>
    </defs>
    <g transform="translate(-179 -181)">
        <circle data-name="Ellipse 146" cx="36" cy="36" r="36" transform="translate(179 181)" style="fill:#bfe7fc"/>
        <g data-name="Group 494" transform="translate(200.135 202.425)" style="clip-path:url(#48e8ioes0a)">
            <path data-name="Path 285" d="M14.334 56.346c-3.3 0-6.6.011-9.9 0a4.143 4.143 0 0 1-3.95-2.387 4.371 4.371 0 0 1-.455-1.842C-.011 48.235 0 44.352.014 40.469a4.252 4.252 0 0 1 4.207-4.2c.538-.006 1.075-.012 1.613 0 .233.006.329-.075.407-.3a11.391 11.391 0 0 1 .775-1.991 3.991 3.991 0 0 1 3.578-2.078c2.658-.035 5.316-.013 7.974-.009a1.434 1.434 0 1 1 .013 2.864c-2.539.006-5.077 0-7.616 0a1.481 1.481 0 0 0-1.635 1.164c-.234.675-.448 1.358-.672 2.037a1.438 1.438 0 0 1-1.5 1.1c-.926.006-1.852 0-2.778 0a1.425 1.425 0 0 0-1.5 1.486q-.011 5.689 0 11.379a1.413 1.413 0 0 0 1.478 1.467q9.99.009 19.98 0a1.422 1.422 0 0 0 1.477-1.512q.006-4.906 0-9.811a1.438 1.438 0 1 1 2.869-.1c.009 1.777 0 3.554 0 5.331v4.659a4.3 4.3 0 0 1-4.361 4.379c-3.33.013-6.66 0-9.99 0" transform="translate(0 -29.023)" style="fill:#10a7f5"/>
            <path data-name="Path 286" d="M96.11 117.656a5.735 5.735 0 1 1 5.7 5.754 5.74 5.74 0 0 1-5.7-5.754m8.6.009a2.866 2.866 0 1 0-2.883 2.865 2.868 2.868 0 0 0 2.883-2.865" transform="translate(-87.497 -101.9)" style="fill:#10a7f5"/>
            <path data-name="Path 287" d="M258.927 5.734c-.515 0-.961.007-1.407 0a1.433 1.433 0 1 1 0-2.865c.446-.008.893 0 1.406 0v-1.3a1.44 1.44 0 1 1 2.867.022v1.282h1.288a1.44 1.44 0 1 1 .009 2.868h-1.3v1.324a1.438 1.438 0 1 1-2.867-.014v-1.31" transform="translate(-233.109)" style="fill:#10a7f5"/>
        </g>
    </g>
</svg>
