<svg xmlns="http://www.w3.org/2000/svg" width="28.842" height="25" viewBox="0 0 28.842 25">
    <path data-name="Path 94" d="M75.619 191.524a1.639 1.639 0 1 0 1.639 1.639 1.639 1.639 0 0 0-1.639-1.639z" transform="translate(-68.572 -178.404)" style="fill:#b8d8e8"/>
    <path data-name="Path 95" d="m33.9 39.638-1.818-5.625-.012-.036a3.809 3.809 0 0 0-3.593-2.552H16.332a3.809 3.809 0 0 0-3.593 2.552l-1.831 5.667a4.922 4.922 0 0 0-2.92 4.491v9.013a3.278 3.278 0 1 0 6.555 0h15.732a3.277 3.277 0 1 0 6.555 0v-9.012a4.922 4.922 0 0 0-2.93-4.498zm-18.062-4.593a.529.529 0 0 1 .494-.342h12.14a.528.528 0 0 1 .494.342l1.349 4.174H14.489zm17.714 13.188a1.641 1.641 0 0 1-1.639 1.639H12.9a1.641 1.641 0 0 1-1.639-1.639v-4.1A1.641 1.641 0 0 1 12.9 42.5h19.013a1.641 1.641 0 0 1 1.639 1.639z" transform="translate(-7.988 -31.426)" style="fill:#b8d8e8"/>
    <rect data-name="Rectangle 55" width="7.456" height="3.278" rx="1.639" transform="translate(10.734 13.12)" style="fill:#b8d8e8"/>
    <path data-name="Path 96" d="M256.6 191.524a1.639 1.639 0 1 0 1.639 1.639 1.639 1.639 0 0 0-1.639-1.639z" transform="translate(-234.718 -178.404)" style="fill:#b8d8e8"/>
</svg>
