<svg xmlns="http://www.w3.org/2000/svg" width="44" height="44" viewBox="0 0 44 44">
    <defs>
        <clipPath id="71nsvhs38a">
            <path data-name="Rectangle 580" style="fill:#10a7f5" d="M0 0h19.898v19.918H0z"/>
        </clipPath>
    </defs>
    <g transform="translate(-43.073 -679.073)">
        <circle data-name="Ellipse 142" cx="22" cy="22" r="22" transform="translate(43.073 679.073)" style="fill:#e2f3fb"/>
        <g data-name="Group 585" style="clip-path:url(#71nsvhs38a)" transform="translate(55.124 690.614)">
            <path data-name="Path 325" d="M19.222 6.343a9.948 9.948 0 1 0-17.95 8.468.235.235 0 0 1 .027.1 202.81 202.81 0 0 1-.417 3.322 1.416 1.416 0 0 0 .483 1.367 1.493 1.493 0 0 0 1.406.212c1.025-.263 2.029-.518 3.036-.756a.35.35 0 0 1 .176.022 10.163 10.163 0 0 0 3.985.845 9.791 9.791 0 0 0 3.811-.79 9.923 9.923 0 0 0 5.443-12.79M6.78 16.451a1.78 1.78 0 0 0-.792-.2 1.69 1.69 0 0 0-.429.056c-.57.149-1.133.288-1.73.436l-.026.006c.034-.279.068-.553.1-.827l.008-.065c.038-.3.076-.608.122-.907a1.762 1.762 0 0 0-.246-1.226A7.223 7.223 0 0 1 7.813 3.046a7.24 7.24 0 0 1 9.124 4.984 7.233 7.233 0 0 1-5.514 9.009 6.994 6.994 0 0 1-4.643-.587" transform="translate(0 -.001)" style="fill:#10a7f5"/>
            <path data-name="Path 326" d="M140.874 139.465h-.009a1.351 1.351 0 0 0-.968 2.3 1.34 1.34 0 0 0 .957.411h.009a1.351 1.351 0 0 0 .968-2.3 1.341 1.341 0 0 0-.957-.411" transform="translate(-130.913 -130.871)" style="fill:#10a7f5"/>
            <path data-name="Path 327" d="M212.029 140.8a1.351 1.351 0 1 0-1.358 1.369h.006a1.358 1.358 0 0 0 1.352-1.369" transform="translate(-196.427 -130.868)" style="fill:#10a7f5"/>
            <path data-name="Path 328" d="M71.173 139.465a1.354 1.354 0 0 0-.048 2.708h.022a1.354 1.354 0 0 0 1.352-1.35 1.356 1.356 0 0 0-1.326-1.358" transform="translate(-65.497 -130.871)" style="fill:#10a7f5"/>
        </g>
    </g>
</svg>
