<svg xmlns="http://www.w3.org/2000/svg" width="42" height="42" viewBox="0 0 42 42">
    <defs>
        <clipPath id="469pavh3qa">
            <path data-name="Rectangle 559" style="fill:#698695" d="M0 0h20.384v20.333H0z"/>
        </clipPath>
    </defs>
    <g transform="translate(-43 -679)">
        <circle data-name="Ellipse 142" cx="21" cy="21" r="21" transform="translate(43 679)" style="fill:#edf0f2"/>
        <g data-name="Group 527" style="clip-path:url(#469pavh3qa)" transform="translate(53.809 689.248)">
            <path data-name="Path 304" d="M19.731 7.165a3.376 3.376 0 0 0-3.693-1.415 1.235 1.235 0 0 1-.806-.051 1.2 1.2 0 0 1-.624-1.509 3.514 3.514 0 0 0-.714-2.927A3.515 3.515 0 0 0 11.162 0h-.006a3.56 3.56 0 0 0-2.534 1.05c-.454.45-.912.909-1.356 1.354l-.511.512Q5.91 3.761 5.064 4.6c-1.332 1.329-2.71 2.7-4.053 4.067a3.462 3.462 0 0 0-.357 4.466 3.384 3.384 0 0 0 3.722 1.4 1.147 1.147 0 0 1 1.072.247 1.257 1.257 0 0 1 .317 1.366 3.1 3.1 0 0 0 .126 1.823 3.568 3.568 0 0 0 2.562 2.281 3.458 3.458 0 0 0 .749.082 3.614 3.614 0 0 0 2.536-1.061c.606-.6 1.216-1.211 1.806-1.8l.727-.729q.754-.755 1.51-1.507c1.192-1.189 2.425-2.418 3.623-3.642a3.443 3.443 0 0 0 .327-4.425m-12.357 6.37A3.45 3.45 0 0 0 4.7 12.209H4.658c-.078.012-.157.022-.236.032-.18.023-.366.048-.551.09a1.257 1.257 0 0 1-1.2-2.123C4.646 8.23 7.254 5.617 9.9 2.982a3.282 3.282 0 0 1 .764-.615 1.138 1.138 0 0 1 1.317.181 1.1 1.1 0 0 1 .405 1.216A3.417 3.417 0 0 0 12.82 6.5a3.358 3.358 0 0 0 2.308 1.509 3.938 3.938 0 0 0 1.344-.044 1.283 1.283 0 0 1 1.456.571 1.245 1.245 0 0 1-.217 1.551c-2.467 2.473-5.017 5.03-7.574 7.572a1.31 1.31 0 0 1-1.226.362 1.2 1.2 0 0 1-.875-.8 1.5 1.5 0 0 1-.012-.772 3.447 3.447 0 0 0-.651-2.909" transform="translate(0 .001)" style="fill:#698695"/>
            <path data-name="Path 305" d="M168.123 125.617a1.142 1.142 0 0 0 1.118 1.215h.015a1.1 1.1 0 0 0 .783-.313 1.252 1.252 0 0 0 .353-.9v-5.008a1.14 1.14 0 0 0-1.118-1.215 1.1 1.1 0 0 0-.8.313 1.254 1.254 0 0 0-.354.9v5.009" transform="translate(-159.067 -112.963)" style="fill:#698695"/>
            <path data-name="Path 306" d="M221.986 186.127h.023a1.334 1.334 0 0 0 1.335-1.331 1.349 1.349 0 0 0-.38-.968 1.32 1.32 0 0 0-.941-.387h-.009a1.336 1.336 0 0 0-1.357 1.317 1.352 1.352 0 0 0 1.329 1.368" transform="translate(-208.772 -173.561)" style="fill:#698695"/>
            <path data-name="Path 307" d="M111.005 145.051a1.35 1.35 0 0 0-1.349-1.346 1.343 1.343 0 1 0 0 2.686 1.329 1.329 0 0 0 1.346-1.339" transform="translate(-102.484 -135.965)" style="fill:#698695"/>
        </g>
    </g>
</svg>
