<svg xmlns="http://www.w3.org/2000/svg" width="42" height="42" viewBox="0 0 42 42">
    <defs>
        <clipPath id="h845qamvma">
            <path data-name="Rectangle 555" style="fill:#698695" d="M0 0h19.246v14.369H0z"/>
        </clipPath>
    </defs>
    <g transform="translate(-43 -679)">
        <circle data-name="Ellipse 142" cx="21" cy="21" r="21" transform="translate(43 679)" style="fill:#edf0f2"/>
        <g data-name="Group 522" style="clip-path:url(#h845qamvma)" transform="translate(54.377 692.25)">
            <path data-name="Path 296" d="M19.245 6.839V2.802A2.819 2.819 0 0 0 16.435 0H2.8A2.775 2.775 0 0 0 .832.827a2.771 2.771 0 0 0-.827 1.964C0 5.821 0 8.779.006 11.583a2.821 2.821 0 0 0 2.77 2.781H16.471a2.59 2.59 0 0 0 1.381-.394 2.779 2.779 0 0 0 1.391-2.47c.007-.84 0-4.622 0-4.66M4.665 3.484a1.183 1.183 0 0 0-1 .494 1.065 1.065 0 0 0-.093 1.006 1.084 1.084 0 0 0 1.052.678h12.442v5.722c0 .564-.237.8-.791.8H2.959c-.537 0-.776-.243-.776-.789V2.953c0-.537.243-.777.788-.777h13.315c.537 0 .777.243.78.786v.516H4.665" transform="translate(-.001)" style="fill:#698695"/>
            <path data-name="Path 297" d="M232.092 201.2h3.308a1.09 1.09 0 0 0 1.176-1.081 1.061 1.061 0 0 0-.3-.763 1.2 1.2 0 0 0-.863-.334h-3.336a1.2 1.2 0 0 0-.862.334 1.061 1.061 0 0 0-.3.764 1.091 1.091 0 0 0 1.177 1.08" transform="translate(-220.814 -190.312)" style="fill:#698695"/>
        </g>
    </g>
</svg>
