<svg xmlns="http://www.w3.org/2000/svg" width="42" height="42" viewBox="0 0 42 42">
    <defs>
        <clipPath id="9flrcnc2ya">
            <path data-name="Rectangle 331" style="fill:#698695" d="M0 0h18.569v17.264H0z"/>
        </clipPath>
    </defs>
    <g transform="translate(-42.809 -678.809)">
        <circle data-name="Ellipse 142" cx="21" cy="21" r="21" transform="translate(42.809 678.809)" style="fill:#edf0f2"/>
        <g data-name="Group 324" style="clip-path:url(#9flrcnc2ya)" transform="translate(55.634 691.958)">
            <path data-name="Path 230" d="M200.587 176.673h-.478v-.042a.811.811 0 0 0-.806-.834h-.012a.825.825 0 0 0-.824.816c-.008.307-.008.608 0 .9a.818.818 0 0 0 .828.808h1.24a.821.821 0 0 0 .052-1.641" transform="translate(-185.502 -164.315)" style="fill:#698695"/>
            <path data-name="Path 231" d="M154.245 129.855h-.025a4.393 4.393 0 0 0-.01 8.785h.035a4.4 4.4 0 0 0 4.381-4.364 4.333 4.333 0 0 0-1.259-3.1 4.388 4.388 0 0 0-3.122-1.32m-.011 6.678h-.005a2.285 2.285 0 0 1 0-4.57h.01a2.285 2.285 0 0 1 0 4.57" transform="translate(-140.058 -121.376)" style="fill:#698695"/>
            <path data-name="Path 232" d="M54.365 113.46a1.035 1.035 0 0 0-1.046 1.035 1.048 1.048 0 0 0 1.022 1.068h.025a1.052 1.052 0 1 0 0-2.1" transform="translate(-49.832 -106.052)" style="fill:#698695"/>
            <path data-name="Path 233" d="M98.334 115.563a1.059 1.059 0 0 0 1.049-1.049 1.049 1.049 0 0 0-1.038-1.054h-.012a1.042 1.042 0 0 0-1.054 1.023 1.066 1.066 0 0 0 1.051 1.081" transform="translate(-90.93 -106.052)" style="fill:#698695"/>
            <path data-name="Path 234" d="M54.358 164.416a1.039 1.039 0 0 0-1.041 1.049 1.04 1.04 0 0 0 1.035 1.055h.01a1.065 1.065 0 0 0 .75-.317 1.048 1.048 0 0 0 .307-.751 1.061 1.061 0 0 0-1.057-1.036z" transform="translate(-49.836 -153.68)" style="fill:#698695"/>
            <path data-name="Path 235" d="M98.337 166.519h.014a1.051 1.051 0 0 0 .721-1.8 1.038 1.038 0 0 0-.747-.3 1.051 1.051 0 0 0-.721 1.8 1.042 1.042 0 0 0 .733.3" transform="translate(-90.934 -153.68)" style="fill:#698695"/>
            <path data-name="Path 236" d="M54.362 62.528a1.037 1.037 0 0 0-1.041 1.047 1.1 1.1 0 0 0 .02.209 1.035 1.035 0 0 0 1.015.844h.01a1.064 1.064 0 0 0 1.036-.844 1 1 0 0 0 .022-.222 1.06 1.06 0 0 0-1.057-1.034" transform="translate(-49.835 -58.445)" style="fill:#698695"/>
            <path data-name="Path 237" d="M142.339 62.525a1.062 1.062 0 0 0-.764.309 1.028 1.028 0 0 0-.291.947 1.06 1.06 0 0 0 1.032.843 1.034 1.034 0 0 0 1.026-.843 1.08 1.08 0 0 0 .02-.2 1.039 1.039 0 0 0-1.026-1.061" transform="translate(-132.038 -58.442)" style="fill:#698695"/>
            <path data-name="Path 238" d="M98.362 62.526a1.05 1.05 0 0 0-1.062 1.256 1.055 1.055 0 0 0 1.022.843h.009a1.056 1.056 0 0 0 1.031-.843 1.041 1.041 0 0 0 .021-.187 1.051 1.051 0 0 0-1.025-1.069" transform="translate(-90.931 -58.443)" style="fill:#698695"/>
            <path data-name="Path 239" d="M186.5 62.524a1.053 1.053 0 0 0-1.048 1.044 1.073 1.073 0 0 0 .02.213 1.046 1.046 0 0 0 1.03.843h.019a1.05 1.05 0 0 0-.019-2.1" transform="translate(-173.337 -58.441)" style="fill:#698695"/>
            <path data-name="Path 240" d="M8.657 14.479a1.448 1.448 0 0 0-.665-.168 610.89 610.89 0 0 0-3.576-.005H3.207a.964.964 0 0 1-1.1-1.094V3.139a.892.892 0 0 1 .647-.954 3.676 3.676 0 0 1 .564-.058h11.195a.964.964 0 0 1 1.1 1.1v3.572a1.1 1.1 0 0 0 .318.789 1.036 1.036 0 0 0 .734.294h.014A1.047 1.047 0 0 0 17.716 6.8c0-1.133.006-2.473 0-3.817a2.8 2.8 0 0 0-.455-1.522A2.992 2.992 0 0 0 14.7.02h-.482V.003H5.588V0H3.479v.018h-.351A3.035 3.035 0 0 0 0 3.15v10.141a3.665 3.665 0 0 0 .078.758 3.017 3.017 0 0 0 2.99 2.362h4.956a1.532 1.532 0 0 0 .189-.009 1.044 1.044 0 0 0 .913-.822 1.013 1.013 0 0 0-.469-1.1" style="fill:#698695"/>
        </g>
    </g>
</svg>
