<svg xmlns="http://www.w3.org/2000/svg" width="99" height="98.999" viewBox="0 0 99 98.999">
    <path d="M1014.5 4512a49.344 49.344 0 1 1 19.268-3.89 49.187 49.187 0 0 1-19.268 3.89zm-26.159-43.6a4.934 4.934 0 0 1 4.581 2.942 5.076 5.076 0 0 1-2.4 6.531 1.671 1.671 0 0 0-.854 2.5q1.451 3.27 2.909 6.536l.874 1.961c.4.908.918 1.33 1.615 1.33a2.767 2.767 0 0 0 1.116-.28c.74-.326 1.468-.649 2.293-1.02l2.315-1.031 1.116-.5 1.157-.517 3.375-1.5-.345-.772-.515-1.153c-.344-.768-.734-1.639-1.1-2.49a1.624 1.624 0 0 1 .743-2.312 1.614 1.614 0 0 1 2.275.97c.267.572.526 1.162.777 1.731l.011.026.3.669c.135.3.27.6.406.908l.069.153c.131.3.263.592.4.893l.2-.077c.155-.059.3-.114.436-.172l7.57-3.37 1.358-.605q12.636-5.624 25.271-11.252a2.029 2.029 0 0 0 1.16-1.064 2.058 2.058 0 0 0-.161-1.571q-6.621-14.878-13.245-29.749c-.4-.891-.906-1.306-1.6-1.306a2.839 2.839 0 0 0-1.14.288q-16.933 7.538-33.862 15.08a6.94 6.94 0 0 0-.47.231l-.281.143c.2.451.4.895.6 1.334l.016.037c.494 1.1.961 2.135 1.42 3.215a1.537 1.537 0 0 1-.809 2.1 1.783 1.783 0 0 1-.74.169 1.565 1.565 0 0 1-1.429-.957 63.24 63.24 0 0 1-.946-2.09l-.013-.029-.372-.846a487.94 487.94 0 0 1-.7-1.574 1.196 1.196 0 0 1-.115.024l-.052.011a.629.629 0 0 0-.152.038l-2.317 1.028-3.53 1.567-.492.22c-1.59.708-2.877 1.285-4.049 1.813a1.681 1.681 0 0 0-.844 2.407c1.148 2.595 2.323 5.229 3.46 7.777l.148.333.265.593c.366.817.848 1.2 1.515 1.2a2.737 2.737 0 0 0 .921-.187 5.525 5.525 0 0 1 1.86-.334zm14.821 7.271a1.564 1.564 0 0 1-1.418-.9c-.492-1-.966-2.058-1.411-3.158a1.7 1.7 0 0 1 .835-2.15l.042-.017a1.569 1.569 0 0 1 .6-.117 1.712 1.712 0 0 1 1.518.946c.18.348.341.724.483 1.057l.211.487c.071.162.157.347.237.52v.011c.163.353.331.716.469 1.087a1.59 1.59 0 0 1-.862 2.081 1.76 1.76 0 0 1-.705.15zm16.832-3.81a2 2 0 0 1-.319-.026 1.55 1.55 0 0 1-1.052-.621 1.925 1.925 0 0 1-.275-1.479c1.294-7.608 2.634-15.454 3.984-23.32a1.678 1.678 0 0 1 .934-1.316 1.617 1.617 0 0 1 .5-.131c.085-.007.146-.011.2-.011a1.711 1.711 0 0 1 1.6 1.218c0 .044 0 .1.006.174a3.482 3.482 0 0 1-.022.761c-1.218 7.192-2.51 14.774-3.95 23.177a1.66 1.66 0 0 1-1.607 1.571zm10.8-5.1a5 5 0 0 1-2.1-9.555l.016-.009a4.813 4.813 0 0 1 1.96-.413 5.118 5.118 0 0 1 4.618 2.948 5.064 5.064 0 0 1-2.5 6.6 4.814 4.814 0 0 1-1.997.428zm-.023-6.638a1.688 1.688 0 0 0-.689.147 1.669 1.669 0 0 0-.9.938 1.643 1.643 0 0 0 1.531 2.208 1.688 1.688 0 0 0 .682-.146h.01a1.67 1.67 0 0 0 .9-.938 1.642 1.642 0 0 0-1.528-2.206zm-31.559 6.458a1.68 1.68 0 0 1-1.509-.9 42.608 42.608 0 0 1-1.437-3.229 1.579 1.579 0 0 1 .88-2.062.05.05 0 0 1 .016-.009 1.743 1.743 0 0 1 .69-.148 1.591 1.591 0 0 1 1.425.921c.185.361.347.739.5 1.1l.026.059c.064.15.129.3.2.451s.129.284.194.427l.025.055c.16.346.325.7.461 1.068a1.681 1.681 0 0 1-.824 2.121 1.552 1.552 0 0 1-.649.145zm14.027-6.56a4.993 4.993 0 0 1-4.677-6.8 4.887 4.887 0 0 1 2.577-2.751l.047-.019a4.859 4.859 0 0 1 1.941-.4 4.965 4.965 0 0 1 4.669 6.838 4.863 4.863 0 0 1-4.557 3.135zm-.018-6.636a1.713 1.713 0 0 0-.677.143 1.669 1.669 0 0 0-.911.935 1.643 1.643 0 0 0 1.526 2.217 1.686 1.686 0 0 0 .672-.141h.023a1.662 1.662 0 0 0 .894-.928 1.644 1.644 0 0 0-1.526-2.215z" transform="translate(-965.001 -4413.001)" style="fill:#fff"/>
</svg>
