<svg xmlns="http://www.w3.org/2000/svg" width="42" height="42" viewBox="0 0 42 42">
    <defs>
        <clipPath id="fet6n1cfya">
            <path data-name="Rectangle 570" style="fill:#10a7f5" d="M0 0h18.403v18.396H0z"/>
        </clipPath>
    </defs>
    <g transform="translate(-43 -679)">
        <circle data-name="Ellipse 142" cx="21" cy="21" r="21" transform="translate(43 679)" style="fill:#e2f3fb"/>
        <g data-name="Group 569" style="clip-path:url(#fet6n1cfya)" transform="translate(54.799 690.011)">
            <path data-name="Path 313" d="M76.472 14a1.251 1.251 0 0 0 .884.394 1.283 1.283 0 0 0 .9-.4q.612-.608 1.221-1.219l.554-.554.647-.646c.49-.489 1-.994 1.491-1.494a1.275 1.275 0 0 0 .388-.906 1.174 1.174 0 0 0-.365-.833 1.2 1.2 0 0 0-1.685.022c-.46.454-.925.92-1.375 1.369l-.583.583v-8.93a2.866 2.866 0 0 0-.015-.364A1.183 1.183 0 0 0 77.1.033a1.178 1.178 0 0 0-.933 1.284v8.997l-1.95-1.947a1.2 1.2 0 0 0-2.013.5 1.263 1.263 0 0 0 .356 1.219c1.127 1.132 2.334 2.338 3.912 3.912" transform="translate(-68.161 -.001)" style="fill:#10a7f5"/>
            <path data-name="Path 314" d="M18.4 218.041v-.367a1.192 1.192 0 0 0-1.183-1.271H17.2a1.206 1.206 0 0 0-1.2 1.271v1a1.769 1.769 0 0 1-1.7 1.709c-.382.01-.772.008-1.149.007h-2.709c-2.078 0-4.226 0-6.339-.008a1.739 1.739 0 0 1-1.7-1.7v-1.079a1.207 1.207 0 0 0-1.153-1.2 1.243 1.243 0 0 0-.887.326 1.063 1.063 0 0 0-.343.744 9.717 9.717 0 0 0 .07 1.906 4.147 4.147 0 0 0 4.059 3.411h9.872a5.035 5.035 0 0 0 .753-.045 4.108 4.108 0 0 0 3.425-2.849 5.125 5.125 0 0 0 .208-1.856" transform="translate(0 -204.398)" style="fill:#10a7f5"/>
        </g>
    </g>
</svg>
