<svg xmlns="http://www.w3.org/2000/svg" width="42" height="42" viewBox="0 0 42 42">
    <defs>
        <clipPath id="rixk0anpda">
            <path data-name="Rectangle 571" style="fill:#10a7f5" d="M0 0h20.069v14.908H0z"/>
        </clipPath>
    </defs>
    <g transform="translate(-43 -679)">
        <circle data-name="Ellipse 142" cx="21" cy="21" r="21" transform="translate(43 679)" style="fill:#e2f3fb"/>
        <g data-name="Group 570" style="clip-path:url(#rixk0anpda)" transform="translate(53.966 692.546)">
            <path data-name="Path 315" d="M17.342 0H2.712A2.593 2.593 0 0 0 0 2.706v9.5a2.592 2.592 0 0 0 2.714 2.7h14.63a2.6 2.6 0 0 0 2.724-2.719V2.715A2.6 2.6 0 0 0 17.342 0M2.757 12.734c-.446 0-.582-.136-.582-.583V3.726L3.552 4.75c1.994 1.482 4.056 3.015 6.081 4.527a.6.6 0 0 0 .8 0c2.156-1.609 4.351-3.241 6.474-4.819l.984-.732v8.426c0 .447-.136.583-.582.583H2.757m12.713-9.92-1.277.95c-1.364 1.014-2.774 2.062-4.159 3.1-1.8-1.343-3.629-2.7-5.4-4.021l-.876-.652h12.553l-.842.627" transform="translate(0 .001)" style="fill:#10a7f5"/>
        </g>
    </g>
</svg>
