<svg xmlns="http://www.w3.org/2000/svg" width="14.744" height="7.372" viewBox="0 0 14.744 7.372">
    <path data-name="Path 242" d="M63.6 141.272H52.921a.921.921 0 1 1 0-1.843H63.6l-1.191-1.192a.921.921 0 1 1 1.3-1.3l2.764 2.764a.947.947 0 0 1 .061.067l.013.018.041.055.01.017a.75.75 0 0 1 .036.061l.006.013c.011.023.023.045.032.069v.009c.01.025.019.05.027.076v.01l.02.077v.024c0 .008.008.043.01.066a.868.868 0 0 1 0 .092.879.879 0 0 1 0 .092c0 .023-.006.044-.01.066s0 .016 0 .023a.744.744 0 0 1-.02.078v.009a.85.85 0 0 1-.027.076v.008a.732.732 0 0 1-.033.069l-.006.012c-.011.021-.024.041-.037.061l-.01.016-.041.055-.013.018a.768.768 0 0 1-.061.067l-2.764 2.764a.921.921 0 1 1-1.3-1.3zm0 0" transform="translate(-52 -136.665)" style="fill:#10a7f5"/>
</svg>
