<svg xmlns="http://www.w3.org/2000/svg" width="31.861" height="28.335" viewBox="0 0 31.861 28.335">
    <defs>
        <clipPath id="d8n940t3na">
            <path data-name="Rectangle 551" style="fill:#ff8d41" d="M0 0h31.861v28.335H0z"/>
        </clipPath>
    </defs>
    <g data-name="Group 514" transform="translate(-186.456 -468.821)">
        <rect data-name="Rectangle 552" width="5.752" height="19.175" rx="2.876" transform="translate(199.83 475.827)" style="fill:#fff0e6"/>
        <g data-name="Group 513">
            <g data-name="Group 512" style="clip-path:url(#d8n940t3na)" transform="translate(186.456 468.821)">
                <path data-name="Path 292" d="M15.879 28.333H2.948a2.735 2.735 0 0 1-2.9-2.31 2.583 2.583 0 0 1 .343-1.813Q3.7 18.459 7.017 12.714 10.142 7.3 13.265 1.885A3.406 3.406 0 0 1 14.814.249a2.668 2.668 0 0 1 3.5 1.174c1.882 3.226 3.743 6.464 5.612 9.7q3.659 6.331 7.323 12.66a3 3 0 0 1 .375 2.908 2.733 2.733 0 0 1-2.7 1.646q-6.141-.007-12.281 0h-.768m1.727-14.7c0-1.18.006-2.359 0-3.539a1.455 1.455 0 0 0-1.636-1.63c-1.131-.006-1.7.524-1.7 1.619q-.012 3.539 0 7.077A1.453 1.453 0 0 0 15.9 18.8c1.134.007 1.7-.521 1.705-1.623.009-1.179 0-2.359 0-3.539m-3.341 9.322a1.67 1.67 0 1 0 3.336-.06 1.669 1.669 0 1 0-3.337.059" style="fill:#ff8d41"/>
            </g>
        </g>
    </g>
</svg>
