<svg xmlns="http://www.w3.org/2000/svg" width="29.125" height="26.738" viewBox="0 0 29.125 26.738">
    <path data-name="Path 93" d="M221.083 238.368 208 250.3a1.483 1.483 0 0 0-.1 2.1l.627.688a1.483 1.483 0 0 0 2.1.1v6.256a5.283 5.283 0 0 0 5.283 5.283h12.339a5.283 5.283 0 0 0 5.283-5.283v-6.256a1.483 1.483 0 0 0 2.1-.1l.627-.687a1.483 1.483 0 0 0-.1-2.1l-13.079-11.932a1.483 1.483 0 0 0-1.997-.001zm8.555 21.067a1.386 1.386 0 0 1-1.386 1.386h-12.338a1.386 1.386 0 0 1-1.386-1.386v-9.811l7.555-6.893 7.556 6.893z" transform="translate(-207.521 -237.981)" style="fill:#b8d8e8"/>
    <rect data-name="Rectangle 54" width="5.845" height="5.845" rx="2.923" transform="translate(11.688 13)" style="fill:#b8d8e8"/>
</svg>
