<svg xmlns="http://www.w3.org/2000/svg" width="26.828" height="16.581" viewBox="0 0 26.828 16.581">
    <defs>
        <clipPath id="5928p0fnta">
            <path data-name="Rectangle 573" style="fill:none" d="M0 0h26.828v16.581H0z"/>
        </clipPath>
    </defs>
    <g data-name="Group 577" style="clip-path:url(#5928p0fnta)">
        <path data-name="Path 317" d="M13.4 14.821a8.059 8.059 0 0 1-4.04 1.687A8.28 8.28 0 0 1 6.068.32a8.123 8.123 0 0 1 7.265 1.4c.022.017.042.037.062.056a1.385 1.385 0 0 1-.292.268 8.62 8.62 0 0 0-2.255 3.171 8.316 8.316 0 0 0-.6 3.107 7.545 7.545 0 0 0 .145 1.478 8.112 8.112 0 0 0 2.146 4.194c.275.287.57.556.857.833" style="fill:#e31221"/>
        <path data-name="Path 318" d="M318.955 2.057a7.807 7.807 0 0 1 3.19-1.541 8.285 8.285 0 0 1 6.961 14.633 8.17 8.17 0 0 1-5.861 1.676 7.982 7.982 0 0 1-4.29-1.721.75.75 0 0 1 .094-.111 7.862 7.862 0 0 0 1.481-1.564 8.143 8.143 0 0 0 1.214-2.454 10.064 10.064 0 0 0 .3-1.5A7.791 7.791 0 0 0 322 7.287a7.667 7.667 0 0 0-.651-2.161 7.868 7.868 0 0 0-1.857-2.567c-.182-.163-.356-.335-.534-.5" transform="translate(-305.521 -.284)" style="fill:#f59e1e"/>
        <path data-name="Path 319" d="M246.517 42.053c.178.168.353.339.534.5a7.868 7.868 0 0 1 1.857 2.567 7.666 7.666 0 0 1 .651 2.161 7.789 7.789 0 0 1 .046 2.19 10.064 10.064 0 0 1-.3 1.5 8.141 8.141 0 0 1-1.214 2.454 7.861 7.861 0 0 1-1.481 1.564.743.743 0 0 0-.094.111h-.038c-.286-.277-.581-.545-.857-.833a8.113 8.113 0 0 1-2.146-4.194 7.544 7.544 0 0 1-.144-1.475 8.316 8.316 0 0 1 .6-3.107 8.62 8.62 0 0 1 2.255-3.171 1.381 1.381 0 0 0 .292-.268.11.11 0 0 1 .039 0" transform="translate(-233.083 -40.28)" style="fill:#ea621c"/>
    </g>
</svg>
