<svg xmlns="http://www.w3.org/2000/svg" width="44" height="44" viewBox="0 0 44 44">
    <g transform="translate(-305 -578)">
        <rect data-name="Rectangle 388" width="44" height="44" rx="22" transform="translate(305 578)" style="fill:#37c1e0"/>
        <path data-name="rgba(0,0,0,1)" d="M126.132 54h2.181l.059.059h.53l1.709.354.177.118.884.236a11.341 11.341 0 0 1 4.509 3.153 10 10 0 0 1 1.886 3.242l.413 1.768.059 1.886-.059.059v.53l-.236 1.179a9.594 9.594 0 0 1-.943 2.24 10.225 10.225 0 0 1-2.092 2.564 11.333 11.333 0 0 1-4.479 2.475l-1.179.295-1.3.118-.059.059h-1.942l-.059-.059-.943-.059-.884-.177-1.764-.59-.707.413-2.3.884-1.768.472-1.238.236h-.471q-.248-.077-.206-.442l.766-1.061.53-1.356.413-1.945.059-1.061a7.978 7.978 0 0 1-1.415-2.829l-.236-1-.059-.884-.059-.059v-1.3l.059-.059v-.53l.236-1.179.707-1.827a10.2 10.2 0 0 1 2.446-3.094 12.091 12.091 0 0 1 3.418-2.063l1.768-.53.648-.059.354-.118h.53zm-4.45 8.664-.707.354a1.362 1.362 0 0 0-.53.884v.589l.354.707a2.7 2.7 0 0 0 .884.472h.589l.53-.236a1.8 1.8 0 0 0 .648-1 1.413 1.413 0 0 0-.413-1.3l-.53-.413zm5.245 0-.53.236-.53.589-.177.648.059.472.236.472a1.954 1.954 0 0 0 1 .589h.53l.648-.295.295-.295.236-.472q-.059-.354.059-.413l-.118-.589-.177-.295q-.352-.765-1.531-.647zm5.3 0-.707.354a1.617 1.617 0 0 0-.53.943v.472l.236.589a1.8 1.8 0 0 0 1 .648h.589l.766-.413a1.608 1.608 0 0 0 .413-.766V63.9l-.295-.648-.648-.53z" transform="translate(199.781 535.023)" style="fill:#fff"/>
    </g>
</svg>
