<svg xmlns="http://www.w3.org/2000/svg" width="83" height="88" viewBox="0 0 83 88">
    <g transform="translate(-39 -425)">
        <rect data-name="Rectangle 625" width="83" height="88" rx="5" transform="translate(39 425)" style="fill:#b8d8e8"/>
        <path data-name="Path 254" d="M114.08 0H89.339a15.631 15.631 0 0 0-15.63 15.633v24.738A15.63 15.63 0 0 0 89.339 56h24.741a15.629 15.629 0 0 0 15.63-15.63V15.633A15.63 15.63 0 0 0 114.08 0m8.656 21.59a87.019 87.019 0 0 1-5.12 9.571 65.775 65.775 0 0 1-5.813 7.686 4.241 4.241 0 0 1-3.416 1.854 3.3 3.3 0 0 1-3.356-2.947c-.022-.1-.532-2.823-.563-2.992a2.826 2.826 0 0 0-5.089-1.1l-6.3 8.972a4.892 4.892 0 0 1-2.92 2.179c-2.921.753-4.9-1.389-5.672-4.66a40.184 40.184 0 0 1-1.356-9.929 57.206 57.206 0 0 1 .9-10.51c.329-1.77 1.148-2.8 2.652-2.792a2.7 2.7 0 0 1 2.668 2.427l1.025 4.891a2.825 2.825 0 0 0 4.954 1.2l6.808-8.346a3.741 3.741 0 0 1 3.078-1.589 3.47 3.47 0 0 1 3.541 2.958s.847 4.512.874 4.639a2.825 2.825 0 0 0 4.939 1.293l4.651-5.539a2.241 2.241 0 0 1 2.342-.9c1.624.313 2.094 2.022 1.167 3.635" transform="translate(-21.209 440.999)" style="fill:#fff"/>
    </g>
</svg>
