<svg xmlns="http://www.w3.org/2000/svg" width="22.087" height="24.257" viewBox="0 0 22.087 24.257">
    <path d="m167.552 126 .689.069.517.448a.788.788 0 0 1 .138.62l.1.1.689.069a8.688 8.688 0 0 1 2 .827 8.193 8.193 0 0 1 1.826 1.482 7.834 7.834 0 0 1 1.792 3.308l.207 1.172v5.305l.207 1.172.689 1.654 2.274 3.032a1.129 1.129 0 0 1 .138.827.979.979 0 0 1-.448.655l-.413.207H172.1l-.1.1a4.046 4.046 0 0 1-1.344 2.171 4.651 4.651 0 0 1-1.447.827l-.9.207h-1.034a4.487 4.487 0 0 1-2.86-1.551l-.482-.689-.448-1.068h-5.858a1.4 1.4 0 0 1-.724-.517 1.129 1.129 0 0 1-.138-.827l.138-.345 1.861-2.412.827-1.447.276-.827.207-1.172V134.1l.207-1.172a7.743 7.743 0 0 1 2.309-3.825 7.427 7.427 0 0 1 2.136-1.378l.965-.345.9-.138.1-.1a.934.934 0 0 1 .448-.93zm-.31 3.308-1.585.413a4.989 4.989 0 0 0-1.585 1.034 5.576 5.576 0 0 0-1.654 2.757l-.138.758v5.306l-.069.069-.069.9-.689 2.136-1.172 1.861-.138.207h15.368a7.821 7.821 0 0 1-1.24-1.792l-.345-.758-.413-1.309-.138-1.24-.069-.069v-5.311a.522.522 0 0 1-.069-.482 5.979 5.979 0 0 0-1.378-2.688 5.286 5.286 0 0 0-2.205-1.516l-1.24-.276zm-1.309 17.642.207.413a2.789 2.789 0 0 0 1.378.689 2.229 2.229 0 0 0 1.792-.551l.345-.413v-.138z" transform="translate(-156.75 -126)" style="fill:#fff"/>
</svg>
