<svg data-name="Group 445" xmlns="http://www.w3.org/2000/svg" width="61.899" height="61.918" viewBox="0 0 61.899 61.918">
    <defs>
        <clipPath id="mbc0d5q8ma">
            <path data-name="Rectangle 479" style="fill:#26b6e8" d="M0 0h61.899v61.918H0z"/>
        </clipPath>
    </defs>
    <g data-name="Group 444" style="clip-path:url(#mbc0d5q8ma)">
        <path data-name="Path 261" d="M8.258 238.285v.574c-.025 1.886-.14 2-1.989 2-1.633 0-3.266.007-4.9 0-1-.006-1.364-.356-1.364-1.331Q0 228.479 0 217.432c0-.979.366-1.33 1.361-1.335q2.793-.014 5.587 0c.933.006 1.284.37 1.3 1.306.011.57 0 1.141 0 1.712 1.536.253 3.052.385 4.5.772 1.789.479 3.509 1.206 5.281 1.757a10.936 10.936 0 0 0 2.9.624c3.121.076 6.245.015 9.368.023a4.134 4.134 0 1 1-.017 8.258c-3.438.012-6.876 0-10.315.007-.284 0-.645-.056-.833.091-.305.238-.71.643-.681.939.034.353.455.694.764.98.113.1.386.045.586.045 3.5 0 6.991.016 10.486 0a6.21 6.21 0 0 0 6.389-6.747.956.956 0 0 1 .465-.727q5.73-2.537 11.49-5.007a3.594 3.594 0 0 1 4.64 1.629 3.456 3.456 0 0 1-1.535 4.633c-7.237 4.068-14.5 8.1-21.725 12.178a7.867 7.867 0 0 1-4.89 1.172c-5.3-.559-10.608-.982-15.913-1.453-.281-.025-.567 0-.958 0" transform="translate(0 -178.945)" style="fill:#26b6e8"/>
        <path data-name="Path 262" d="M188.147 2.068C188.426 0 188.426 0 190.477 0c.888 0 1.776-.011 2.664 0s1.28.369 1.281 1.239q.013 11.132 0 22.264c0 .881-.379 1.243-1.264 1.256-1.06.016-2.12 0-3.18 0-1.471 0-1.651-.165-1.8-1.665L184.2 25.5a6.014 6.014 0 0 1-.09-.671c0-2.579-.018-5.158.017-7.736a1.331 1.331 0 0 1 .457-.867c.508-.432.749-.888.363-1.483a.949.949 0 0 0-1.422-.288 6.021 6.021 0 0 1-5.285.508c-.213-.072-.616.152-.819.353-2.344 2.314-4.652 4.665-7 6.974a4 4 0 0 1-6.161-.416 3.936 3.936 0 0 1 .584-5.163c2.151-2.184 4.331-4.34 6.5-6.508.162-.162.325-.323.484-.489.485-.507.624-1.076.066-1.578a1.022 1.022 0 0 0-1.528.137c-.871.871-1.729 1.755-2.62 2.6a1.49 1.49 0 0 1-.854.463c-2.228.038-4.457.021-6.852.021.275-.313.44-.523.627-.711 2.063-2.069 4.149-4.115 6.189-6.206a7.609 7.609 0 0 1 5.77-2.383c4.87.033 9.74.01 14.61.01z" transform="translate(-132.529)" style="fill:#26b6e8"/>
        <path data-name="Path 263" d="M72.277 78.105a17.621 17.621 0 0 0-2.48 2.921 2.047 2.047 0 0 1-2.208 1.183c-3.609-.052-7.218-.022-10.828-.019-1.134 0-1.344.178-1.538 1.26a2.023 2.023 0 0 1-1.889 1.813 1.179 1.179 0 0 0-1.2 1.356q.022 2.277 0 4.555a1.177 1.177 0 0 0 1.2 1.35 1.963 1.963 0 0 1 1.878 1.906 1.185 1.185 0 0 0 1.383 1.17q12.031-.011 24.062 0c.858 0 1.319-.317 1.421-1.222A1.972 1.972 0 0 1 84 92.518a1.151 1.151 0 0 0 1.152-1.307q-.012-2.321 0-4.642a1.155 1.155 0 0 0-1.156-1.308 8.28 8.28 0 0 1-1.381-.458c1.062-1.031 1.953-1.91 2.866-2.765a.823.823 0 0 1 .541-.143c1.052.032 2.1.088 3.257.14v16.119c0 1.27-.3 1.574-1.555 1.574H49.569c-1.231 0-1.553-.307-1.553-1.489V79.501c0-1.073.334-1.439 1.342-1.44q11.3-.008 22.6 0a2.8 2.8 0 0 1 .321.045" transform="translate(-39.758 -64.64)" style="fill:#26b6e8"/>
        <path data-name="Path 264" d="M87.233 123.323a4.33 4.33 0 0 0-2.914-2.916v-3.348a4.369 4.369 0 0 0 2.821-2.653.573.573 0 0 1 .417-.309c3.716-.017 7.432-.013 11.183-.013.082.537.124 1.02.233 1.487a5.99 5.99 0 0 0 9.723 3.051 26.155 26.155 0 0 0 2.387-2.622l2.049 1.123v3.261a4.37 4.37 0 0 0-2.937 2.939z" transform="translate(-69.825 -94.473)" style="fill:#26b6e8"/>
    </g>
</svg>
