<svg xmlns="http://www.w3.org/2000/svg" width="43" height="44" viewBox="0 0 43 44">
    <g transform="translate(-362 -578)">
        <rect data-name="Rectangle 389" width="43" height="44" rx="21.5" transform="translate(362 578)" style="fill:#10a7f5"/>
        <path data-name="rgba(0,0,0,1)" d="M96.64 36.951a2.073 2.073 0 0 1 1.5.413l3.072 3.072a1.9 1.9 0 0 1 .361 1.446 1.85 1.85 0 0 1-.645 1.11 2.04 2.04 0 0 1-.878.413l-.594.491-.31.568a1.973 1.973 0 0 0-.052.878l.31.929.465.826a9.119 9.119 0 0 0 1.472 1.73l.155.1a6.961 6.961 0 0 0 2.065 1.446l.723.258h.774l.568-.207.491-.361.516-1.058.336-.387.62-.361a2.356 2.356 0 0 1 1.033-.052l.671.31 3.175 3.175.207.361.155.723-.052.052-.052.62-.491.8q-.114-.036-.077.077L112 54.4l-.077.155q-.114-.036-.077.077l-.155.077-.077.155q-.114-.036-.077.077l-.155.077-.077.155q-.114-.036-.077.077l-.155.077-.077.155q-.114-.036-.077.077l-.155.077-.077.155q-.114-.036-.077.077l-.155.077q.057.139-.077.1l-.413.361-.62.258-.568.1h-.826l-1.342-.258-1.188-.413a16.93 16.93 0 0 1-2.427-1.291 25.963 25.963 0 0 1-5.086-4.26 23.787 23.787 0 0 1-3.459-4.647 14.187 14.187 0 0 1-1.084-2.478L93.1 42.4l-.1-1.086.052-.052.052-.826.413-.878 2.246-2.246a1.786 1.786 0 0 1 .877-.361z" transform="translate(281 553.052)" style="fill:#fff"/>
    </g>
</svg>
