<svg xmlns="http://www.w3.org/2000/svg" width="44" height="44" viewBox="0 0 44 44">
    <defs>
        <clipPath id="4dz175fe3a">
            <path data-name="Rectangle 583" style="fill:#10a7f5" d="M0 0h19.237v19.266H0z"/>
        </clipPath>
    </defs>
    <circle data-name="Ellipse 142" cx="22" cy="22" r="22" style="fill:#e2f3fb"/>
    <g data-name="Group 590">
        <g data-name="Group 589" style="clip-path:url(#4dz175fe3a)" transform="translate(12 12)">
            <path data-name="Path 331" d="M19.227 14.445a1.831 1.831 0 0 0-.74-1.2c-.255-.2-.521-.373-.779-.543l-.021-.014a19.259 19.259 0 0 0-3.274-1.858 1.711 1.711 0 0 0-2.082.478l-.205.231c-.178.2-.361.4-.532.625-.129-.063-.258-.118-.382-.171-.143-.061-.279-.118-.4-.184A7.841 7.841 0 0 1 7.079 7.66c.339-.281.62-.527.874-.766a1.654 1.654 0 0 0 .456-2.062A15.848 15.848 0 0 0 6.86 2.019c-.266-.41-.552-.846-.86-1.262A1.8 1.8 0 0 0 4.79.01a1.587 1.587 0 0 0-1.219.395 1.832 1.832 0 0 1-.092.069C3.424.515 3.36.561 3.3.618A14.875 14.875 0 0 0 .2 4.425a1.424 1.424 0 0 0-.184.917 15.089 15.089 0 0 0 .456 1.986 15.734 15.734 0 0 0 2.762 4.925 20.193 20.193 0 0 0 7.791 6.187 9.775 9.775 0 0 0 3.09.817l.113.009.1-.037.059-.017a1.769 1.769 0 0 0 .45-.181l.049-.03c.427-.259.869-.528 1.284-.837a13.888 13.888 0 0 0 2.666-2.485 1.64 1.64 0 0 0 .385-1.234m-13-9c-.225.2-.448.4-.665.6q-.248.225-.5.449a1.088 1.088 0 0 0-.319 1.194 9.842 9.842 0 0 0 4.194 5.623 8.633 8.633 0 0 0 2.659 1.2 1.07 1.07 0 0 0 1.133-.317l.374-.412c.219-.24.445-.488.665-.737l.014-.016.014-.015.024.011a20.241 20.241 0 0 1 2.9 1.7 20.41 20.41 0 0 1-2.337 2.012.969.969 0 0 1-.946.164 13.425 13.425 0 0 1-5.021-2.615 19.064 19.064 0 0 1-4.888-5.594 9.657 9.657 0 0 1-1.269-3.425 15.3 15.3 0 0 1 2.266-2.748c.156.219.3.429.43.646.286.488.566.994.836 1.483l.443.8" style="fill:#10a7f5"/>
        </g>
    </g>
</svg>
