<svg xmlns="http://www.w3.org/2000/svg" width="27.5" height="27.497" viewBox="0 0 27.5 27.497">
    <defs>
        <clipPath id="w6gi96oila">
            <path data-name="Rectangle 543" style="fill:#fff" d="M0 0h27.5v27.497H0z"/>
        </clipPath>
    </defs>
    <g data-name="Group 498" style="clip-path:url(#w6gi96oila)">
        <path data-name="Path 288" d="M13.738 0A13.748 13.748 0 1 1 0 13.715 13.76 13.76 0 0 1 13.738 0m.018 25.778A12.029 12.029 0 1 0 1.719 13.763a12.059 12.059 0 0 0 12.037 12.015" style="fill:#fff"/>
        <path data-name="Path 289" d="m124.594 125.769-2.9-2.887c-.237-.236-.477-.468-.708-.709a.864.864 0 1 1 1.227-1.207c1.184 1.178 2.361 2.361 3.571 3.573.109-.1.211-.2.309-.293 1.08-1.079 2.155-2.163 3.243-3.234a1.243 1.243 0 0 1 .535-.324.811.811 0 0 1 .939.417.918.918 0 0 1-.192 1.052q-1.221 1.234-2.454 2.455c-.372.37-.749.734-1.156 1.131.114.12.206.222.3.319 1.071 1.072 2.146 2.139 3.209 3.219a1.334 1.334 0 0 1 .349.56.8.8 0 0 1-.418.937.918.918 0 0 1-1.051-.193q-1.334-1.323-2.658-2.656c-.3-.3-.6-.615-.926-.952-.122.116-.224.209-.321.306-1.072 1.07-2.139 2.146-3.219 3.208a1.334 1.334 0 0 1-.561.348.8.8 0 0 1-.936-.42.91.91 0 0 1 .195-1.05q1.323-1.334 2.657-2.657c.3-.3.615-.6.967-.94" transform="translate(-112.041 -112.014)" style="fill:#fff"/>
    </g>
</svg>
