<svg xmlns="http://www.w3.org/2000/svg" width="42" height="42" viewBox="0 0 42 42">
    <defs>
        <clipPath id="sb8sy4kxha">
            <path data-name="Rectangle 562" style="fill:#698695" d="M0 0h23.404v18.299H0z"/>
        </clipPath>
    </defs>
    <g transform="translate(-43 -679)">
        <circle data-name="Ellipse 142" cx="21" cy="21" r="21" transform="translate(43 679)" style="fill:#edf0f2"/>
        <g data-name="Group 531" style="clip-path:url(#sb8sy4kxha)" transform="translate(54.781 690.601)">
            <path data-name="Path 310" d="M0 9.475A9.1 9.1 0 0 1 6.825.317a8.875 8.875 0 0 1 8.765 2.37 1.3 1.3 0 1 1-1.809 1.869 6.531 6.531 0 1 0-.121 9.291 1.37 1.37 0 0 1 1.394-.444 1.3 1.3 0 0 1 .593 2.149 8.644 8.644 0 0 1-3.72 2.3 8.9 8.9 0 0 1-7.348-.791 8.876 8.876 0 0 1-4.432-6.31c-.036-.2-.076-.391-.1-.588C.023 9.894.012 9.622 0 9.475" transform="translate(0 .001)" style="fill:#698695"/>
            <path data-name="Path 311" d="M152.277 99.9a5.509 5.509 0 0 1-.546-.9 1.232 1.232 0 0 1 .514-1.445 1.257 1.257 0 0 1 1.578.116q1.351 1.314 2.666 2.665a1.238 1.238 0 0 1 0 1.724q-1.312 1.353-2.666 2.665a1.275 1.275 0 0 1-1.788-.049 1.312 1.312 0 0 1-.037-1.794c.1-.113.209-.22.362-.379h-6.793a1.306 1.306 0 0 1-1.271-.99 1.277 1.277 0 0 1 .672-1.459 1.609 1.609 0 0 1 .676-.149c2.115-.011 4.231-.007 6.346-.007h.283" transform="translate(-134.539 -92.051)" style="fill:#698695"/>
        </g>
    </g>
</svg>
