<svg xmlns="http://www.w3.org/2000/svg" width="42" height="42" viewBox="0 0 42 42">
    <defs>
        <clipPath id="0iyi6zvgya">
            <path data-name="Rectangle 561" style="fill:#698695" d="M0 0h18.794v18.801H0z"/>
        </clipPath>
    </defs>
    <g transform="translate(-43 -679)">
        <circle data-name="Ellipse 142" cx="21" cy="21" r="21" transform="translate(43 679)" style="fill:#edf0f2"/>
        <g data-name="Group 530">
            <g data-name="Group 529" style="clip-path:url(#0iyi6zvgya)" transform="translate(54.603 690.599)">
                <path data-name="Path 309" d="M18.792 10.679a2.964 2.964 0 0 0-1.9-2.816h-.009v-.022a7.315 7.315 0 0 0-.669-3.446A7.427 7.427 0 0 0 6.52.6a7.375 7.375 0 0 0-3.148 2.393A7.736 7.736 0 0 0 1.964 6.7c-.043.351-.053.7-.062 1.037v.121A3.039 3.039 0 0 0 0 10.841v.66c0 .567 0 1.153.008 1.732a3.154 3.154 0 0 0 .157.956A3.012 3.012 0 0 0 3.638 16.2a3.049 3.049 0 0 0 2.452-3.015V10.9A3.019 3.019 0 0 0 4.2 7.861c0-.108.009-.216.012-.321a5.883 5.883 0 0 1 .13-1.26 4.938 4.938 0 0 1 4-3.873 4.958 4.958 0 0 1 5.141 1.868 5.214 5.214 0 0 1 1.137 3.579 3.019 3.019 0 0 0-1.914 2.909v.669c0 .583-.009 1.186.013 1.784a3.344 3.344 0 0 0 .258 1.207 4.606 4.606 0 0 0 .5.8l.036.05a2.959 2.959 0 0 1-1.249.986 1.713 1.713 0 0 0-1.692-1.012H9.458a1.855 1.855 0 0 0-1.326.537 1.744 1.744 0 0 0-.5 1.249A1.765 1.765 0 0 0 9.446 18.8h.949c.215 0 .432 0 .648-.006a5.255 5.255 0 0 0 4.547-2.544 3.034 3.034 0 0 0 3.2-3.053V10.68" transform="translate(-.001 -.001)" style="fill:#698695"/>
            </g>
        </g>
    </g>
</svg>
