<svg xmlns="http://www.w3.org/2000/svg" width="42" height="42" viewBox="0 0 42 42">
    <defs>
        <clipPath id="gh9fc76vfa">
            <path data-name="Rectangle 593" style="fill:#698695" d="M0 0h16.932v17.167H0z"/>
        </clipPath>
    </defs>
    <g transform="translate(-24.5 -530)">
        <circle data-name="Ellipse 142" cx="21" cy="21" r="21" transform="translate(24.5 530)" style="fill:#edf0f2"/>
        <g data-name="Group 625" style="clip-path:url(#gh9fc76vfa)" transform="translate(37.034 542.416)">
            <path data-name="Path 341" d="M16.452 5.724a8.5 8.5 0 0 0-3.737-4.564A8.2 8.2 0 0 0 7 .145a8.72 8.72 0 0 0-5.1 3.1l-.037.046-.016.02a8.451 8.451 0 0 0-1.359 2.46 8.582 8.582 0 0 0 3.729 10.237 8.328 8.328 0 0 0 10.742-2 8.442 8.442 0 0 0 1.485-2.608 8.556 8.556 0 0 0 .008-5.672m-4.042 7.504a6.187 6.187 0 0 1-3.8 1.449 7.553 7.553 0 0 1-1.365-.13 5.9 5.9 0 0 1-.594-.142q-.135-.043-.268-.092a6.281 6.281 0 0 1-1.778-1.013 6.633 6.633 0 0 1-1.092-1.192 1.54 1.54 0 0 0-.146-.173 6.151 6.151 0 0 1-.76-1.627 5.971 5.971 0 0 1 .916-5.287 7.156 7.156 0 0 1 .985-1.1l.009.006a6.187 6.187 0 0 1 3.8-1.449 7.553 7.553 0 0 1 1.365.13 5.9 5.9 0 0 1 .594.142q.135.043.268.092a6.28 6.28 0 0 1 1.778 1.013 6.631 6.631 0 0 1 1.092 1.191 1.545 1.545 0 0 0 .146.173 6.149 6.149 0 0 1 .76 1.627 5.971 5.971 0 0 1-.916 5.287 7.157 7.157 0 0 1-.985 1.1l-.01-.006" style="fill:#698695"/>
            <path data-name="Path 342" d="M155.143 87.6c-.31-.312-.631-.635-.937-.952a.129.129 0 0 1-.018-.04c-.007-.713-.007-1.44-.006-2.143v-.989a1.181 1.181 0 0 0-1.157-1.249 1.138 1.138 0 0 0-.823.323 1.286 1.286 0 0 0-.37.928v2.267c0 .433-.006.882.012 1.327a1.377 1.377 0 0 0 .321.844c.754.8 1.537 1.575 2.229 2.263a1.126 1.126 0 0 0 .8.34 1.224 1.224 0 0 0 .491-.106 1.152 1.152 0 0 0 .685-.837 1.2 1.2 0 0 0-.334-1.072c-.3-.3-.6-.61-.892-.906" transform="translate(-144.609 -78.318)" style="fill:#698695"/>
        </g>
    </g>
</svg>
