<svg xmlns="http://www.w3.org/2000/svg" width="430" height="286" viewBox="0 0 430 286">
    <defs>
        <clipPath id="clip-path">
            <path id="Rectangle_493" data-name="Rectangle 493" style="fill:#fff" d="M0 0h430v286H0z"/>
        </clipPath>
        <clipPath id="clip-path-2">
            <path id="Rectangle_622" data-name="Rectangle 622" style="fill:url(#linear-gradient)" d="M0 0h390.64v299.309H0z"/>
        </clipPath>
        <clipPath id="clip-path-4">
            <path id="Path_355" data-name="Path 355" d="m185.477 42.725-65.419 80.207c-14.428 17.689-42.918 10.76-47.611-11.579l-9.872-47c-1.563-12.9-12.045-23.388-25.612-23.337-14.473-.059-22.348 9.831-25.509 26.843 0 0-9.772 50.987-8.657 101.008 1.072 48.164 7.503 71.994 13.035 95.433 7.421 31.462 26.443 52.052 54.511 44.792 11.139-1.882 23-12.322 28.065-20.922l60.512-86.229c13.8-19.662 44.454-13.039 48.905 10.566.307 1.614 5.223 27.755 5.421 28.756 4.465 31.982 44.574 38.816 65.076 10.51 0 0 30.736-34.2 55.868-73.863 27.323-43.12 49.226-91.991 49.226-91.991 8.9-15.519 4.388-31.931-11.237-34.947-9.387-2.127-17.488 1.943-22.511 8.685l-44.7 53.23c-14.731 17.543-43.229 10.083-47.473-12.429-.249-1.215-8.426-44.8-8.4-44.574-2.576-18.146-18.049-28.432-34.029-28.433a35.935 35.935 0 0 0-29.589 15.277" transform="translate(-2.707 -27.448)" style="fill:url(#linear-gradient)"/>
        </clipPath>
        <linearGradient id="linear-gradient" x1=".519" y1="1.496" x2=".205" y2=".339" gradientUnits="objectBoundingBox">
            <stop offset="0" stop-color="#1cacf0"/>
            <stop offset="1" stop-color="#29b0f2"/>
        </linearGradient>
        <style>
            
        </style>
    </defs>
    <g id="w-background" style="clip-path:url(#clip-path)">
        <g id="Group_640" data-name="Group 640" transform="translate(-43.32)">
            <g id="Group_644" data-name="Group 644" style="clip-path:url(#clip-path-2)">
                <g id="Group_641" data-name="Group 641">
                    <g id="Group_640-2" data-name="Group 640" style="clip-path:url(#clip-path-2)">
                        <path id="Path_354" data-name="Path 354" d="M372.18 50.968c-9.387-2.127-17.488 1.943-22.511 8.685l-44.7 53.23c-14.731 17.543-43.229 10.083-47.473-12.429-.249-1.215-8.426-44.8-8.4-44.574-4.341-30.584-45.314-38.841-63.618-13.156l-65.419 80.207c-14.428 17.689-42.918 10.76-47.611-11.579l-9.872-47c-1.563-12.9-12.045-23.388-25.612-23.337-14.473-.059-22.348 9.831-25.509 26.843 0 0-9.772 50.987-8.657 101.008 1.071 48.165 7.502 71.995 13.034 95.434 7.421 31.462 26.443 52.052 54.511 44.792 11.139-1.882 23-12.322 28.065-20.922l60.512-86.229c13.8-19.662 44.454-13.039 48.905 10.566.307 1.614 5.223 27.755 5.421 28.756 4.465 31.982 44.574 38.816 65.076 10.51 0 0 30.736-34.2 55.868-73.863 27.323-43.12 49.226-91.991 49.226-91.991 8.9-15.519 4.388-31.931-11.237-34.947" transform="translate(-1.681 -17.039)" style="fill:url(#linear-gradient)"/>
                    </g>
                </g>
            </g>
        </g>
    </g>
</svg>
