<svg xmlns="http://www.w3.org/2000/svg" width="42" height="42" viewBox="0 0 42 42">
    <defs>
        <clipPath id="xqzmfhn8na">
            <path data-name="Rectangle 550" style="fill:#698695" d="M0 0h16.635v16.63H0z"/>
        </clipPath>
    </defs>
    <g transform="translate(-43 -679)">
        <circle data-name="Ellipse 142" cx="21" cy="21" r="21" transform="translate(43 679)" style="fill:#edf0f2"/>
        <g data-name="Group 508" style="clip-path:url(#xqzmfhn8na)" transform="translate(56 691.893)">
            <path data-name="Path 290" d="M16.631 7.364a3.61 3.61 0 0 0-.07-.7 3.333 3.333 0 0 0-3.235-2.648H3.22a1.411 1.411 0 0 1-.539-.1.892.892 0 0 1-.49-1.022.914.914 0 0 1 .96-.729h10.338a.9.9 0 0 1 .869.494 1.459 1.459 0 0 1 .092.256l.034.111a1.083 1.083 0 0 0 2.013.153 1.26 1.26 0 0 0 .013-.958A3.089 3.089 0 0 0 13.482 0H3.1A3.094 3.094 0 0 0 0 3.1v10.186a3.345 3.345 0 0 0 3.335 3.341h9.962a3.346 3.346 0 0 0 3.334-3.341V7.364m-2.158 5.842a1.169 1.169 0 0 1-1.254 1.261H3.407a1.152 1.152 0 0 1-1.243-1.207c-.008-1.83-.006-3.69 0-5.49V6.039a4.313 4.313 0 0 0 1.336.139h9.658a1.156 1.156 0 0 1 1.176.635 1.514 1.514 0 0 1 .137.625c.014 1.991.01 4.022.006 5.77" transform="translate(0 .001)" style="fill:#698695"/>
            <path data-name="Path 291" d="M240.488 187.318a1.213 1.213 0 0 0-1.213 1.226 1.218 1.218 0 0 0 .372.866 1.2 1.2 0 0 0 .842.347h.019a1.223 1.223 0 0 0 1.2-1.244 1.2 1.2 0 0 0-1.216-1.194" transform="translate(-228.153 -178.612)" style="fill:#698695"/>
        </g>
    </g>
</svg>
