<svg xmlns="http://www.w3.org/2000/svg" width="23.254" height="26.722" viewBox="0 0 23.254 26.722">
    <defs>
        <clipPath id="ulubl54eua">
            <path data-name="Rectangle 490" style="fill:#fff" d="M0 0h23.254v26.722H0z"/>
        </clipPath>
    </defs>
    <g data-name="Group 467" style="clip-path:url(#ulubl54eua)">
        <path data-name="Path 272" d="M21.426 84.1c-1.058 0-2.063.005-3.069 0-.754-.005-1.513.023-2.261-.052a3.379 3.379 0 0 1-.573-6.558 4.333 4.333 0 0 1 1.147-.171c1.434-.02 2.868-.008 4.3-.008h.459V75.74v.344a.865.865 0 0 0-.455-.807.905.905 0 1 1 .877-1.583 2.456 2.456 0 0 1 1.384 2.263c.021 4.239.018 6.852 0 11.091a2.551 2.551 0 0 1-2.63 2.582H5.057A5.009 5.009 0 0 1 .02 84.678c-.03-4.352-.023-8.705 0-13.058a3.579 3.579 0 0 1 3.609-3.558c3.094-.026 4.994-.009 8.088-.006a.945.945 0 0 1 .985.667.833.833 0 0 1-.358.985 1.536 1.536 0 0 1-.716.157c-2.944.01-4.692.006-7.635.007-1.5 0-2.165.668-2.165 2.168v12.378a3.168 3.168 0 0 0 1.989 3.137 3.119 3.119 0 0 0 1.205.253q7.755.025 15.51.01c.535 0 .87-.246.884-.724.027-.978.008-1.957.008-2.993m-.023-1.82V79.14c-1.7 0-3.366-.013-5.034.014a1.465 1.465 0 0 0-.747.314 1.516 1.516 0 0 0-.531 1.713 1.534 1.534 0 0 0 1.5 1.1c1.067.016 2.135 0 3.2.005H21.4" transform="translate(0 -62.911)" style="fill:#fff"/>
        <path data-name="Path 273" d="M198.936 7.082a2.225 2.225 0 0 1 .266-.364.9.9 0 0 1 1.289 1.263q-.956 1.018-1.952 2a.856.856 0 0 1-1.281-.007Q196.276 9 195.329 8a.906.906 0 1 1 1.308-1.253c.1.09.193.181.35.329V1.058A.936.936 0 0 1 197.911 0a.916.916 0 0 1 .892 1.04v5.95l.133.091" transform="translate(-180.344 -.001)" style="fill:#59e9ee"/>
    </g>
</svg>
