<svg xmlns="http://www.w3.org/2000/svg" width="42" height="42" viewBox="0 0 42 42">
    <defs>
        <clipPath id="x3ppofpr9a">
            <path data-name="Rectangle 558" style="fill:#698695" d="M0 0h19.929v18.321H0z"/>
        </clipPath>
    </defs>
    <g transform="translate(-43 -679)">
        <circle data-name="Ellipse 142" cx="21" cy="21" r="21" transform="translate(43 679)" style="fill:#edf0f2"/>
        <g data-name="Group 526">
            <g data-name="Group 525" style="clip-path:url(#x3ppofpr9a)" transform="translate(53.036 690.84)">
                <path data-name="Path 302" d="M19.413 6.154a9.138 9.138 0 0 0-4.019-4.907A8.814 8.814 0 0 0 9.251.155 8.912 8.912 0 0 0 2.47 5.611a6.857 6.857 0 0 0-.11.268L2.3 5.8a1.244 1.244 0 0 0-1.749-.351 1.281 1.281 0 0 0-.335 1.768c.562.861 1.139 1.734 1.714 2.6a1.255 1.255 0 0 0 1.812.379C4.718 9.546 5.535 9 6.345 8.428a1.417 1.417 0 0 0 .51-.75 1.181 1.181 0 0 0-.479-1.313 1.225 1.225 0 0 0-1.453-.017 6.57 6.57 0 0 1 12.2 1.02 6.42 6.42 0 0 1-.984 5.685 6.248 6.248 0 0 1-6.617 2.591 6.242 6.242 0 0 1-4.014-2.621 1.268 1.268 0 1 0-2.088 1.438 9.082 9.082 0 0 0 7.47 3.859 8.847 8.847 0 0 0 4.695-1.33 9.172 9.172 0 0 0 3.828-10.836" style="fill:#698695"/>
                <path data-name="Path 303" d="M185.566 81.567a1.48 1.48 0 0 0 .345.908c.81.856 1.653 1.694 2.4 2.433a1.211 1.211 0 0 0 .862.366 1.315 1.315 0 0 0 .528-.114 1.238 1.238 0 0 0 .737-.9 1.286 1.286 0 0 0-.359-1.152c-.318-.328-.644-.656-.959-.974-.333-.336-.678-.683-1.008-1.024a.141.141 0 0 1-.019-.043c-.008-.767-.007-1.548-.007-2.3v-1.064a1.27 1.27 0 0 0-1.244-1.343 1.224 1.224 0 0 0-.885.347 1.382 1.382 0 0 0-.4 1v2.433c0 .466-.007.948.013 1.427" transform="translate(-176.068 -72.454)" style="fill:#698695"/>
            </g>
        </g>
    </g>
</svg>
