<svg xmlns="http://www.w3.org/2000/svg" width="42" height="42" viewBox="0 0 42 42">
    <defs>
        <clipPath id="l98hll0bha">
            <path data-name="Rectangle 483" style="fill:#698695" d="M0 0h14.501v19H0z"/>
        </clipPath>
    </defs>
    <g transform="translate(-43 -679)">
        <circle data-name="Ellipse 142" cx="21" cy="21" r="21" transform="translate(43 679)" style="fill:#edf0f2"/>
        <g data-name="Group 454">
            <g data-name="Group 453" style="clip-path:url(#l98hll0bha)" transform="rotate(180 35.625 354.75)">
                <path data-name="Path 266" d="M13.789 4.165A7.072 7.072 0 0 0 7.667 0h-.032A7.306 7.306 0 0 0 2.9 1.458 7.017 7.017 0 0 0 .078 8.3a10.911 10.911 0 0 0 1.395 3.793A31.05 31.05 0 0 0 6.395 18.6a1.167 1.167 0 0 0 .851.4h.023a1.142 1.142 0 0 0 .843-.435q.316-.362.635-.723c.716-.812 1.456-1.652 2.137-2.524a18.982 18.982 0 0 0 3.168-5.579 7.039 7.039 0 0 0-.262-5.574M7.32 2.2a4.869 4.869 0 0 1 3.9 1.947 4.783 4.783 0 0 1 1.073 3.3 7.245 7.245 0 0 1-.78 2.731 25.246 25.246 0 0 1-3.844 5.612c-.139.162-.285.324-.429.484-.143-.16-.287-.322-.427-.484a28.056 28.056 0 0 1-3.278-4.508 10.457 10.457 0 0 1-1.231-3 4.858 4.858 0 0 1 .776-3.89 4.74 4.74 0 0 1 3.134-2.085A6.062 6.062 0 0 1 7.32 2.2" transform="translate(0 .001)" style="fill:#698695"/>
            </g>
        </g>
    </g>
</svg>
